<svg xmlns="http://www.w3.org/2000/svg" xmlns:xlink="http://www.w3.org/1999/xlink" width="110" height="55" version="1.1"><rect id="backgroundrect" width="100%" height="100%" x="0" y="0" fill="none" stroke="none"/>

<g class="currentLayer" style=""><title>Layer 1</title><g id="surface1" class="selected" fill="#ffffff" fill-opacity="1">
<path style="stroke: none; fill-rule: nonzero;" d="M 62.019531 0.816406 C 61.367188 1.847656 60.84375 3.007812 60.429688 4.300781 C 60.03125 5.582031 59.902344 7.707031 60.179688 8.777344 C 60.632812 10.578125 61.484375 12.074219 63.027344 13.773438 C 63.757812 14.589844 63.894531 14.820312 64.132812 15.578125 C 64.28125 16.050781 64.523438 16.75 64.660156 17.109375 L 64.921875 17.769531 L 64.183594 17.140625 C 62.222656 15.503906 60.164062 14.992188 57.925781 15.578125 C 56.5625 15.921875 54.585938 17.003906 53.429688 18.023438 L 53.054688 18.351562 L 53.730469 19.199219 C 55.160156 21 57.089844 22.347656 58.941406 22.839844 C 59.894531 23.082031 61.378906 23.058594 62.542969 22.769531 C 63.484375 22.550781 65.53125 21.644531 66.191406 21.164062 L 66.511719 20.921875 L 67.324219 22.003906 C 67.761719 22.582031 68.695312 23.652344 69.394531 24.351562 L 70.648438 25.625 L 69.554688 25.582031 C 67.636719 25.511719 66.316406 26.082031 64.890625 27.617188 C 64.191406 28.347656 63.164062 29.90625 62.832031 30.71875 L 62.648438 31.160156 L 63.496094 31.558594 C 64.96875 32.253906 65.964844 32.472656 67.519531 32.484375 C 69.121094 32.484375 69.957031 32.253906 71.140625 31.476562 C 71.96875 30.9375 73.15625 29.730469 73.75 28.847656 C 73.96875 28.511719 74.183594 28.242188 74.230469 28.242188 C 74.277344 28.242188 74.632812 28.429688 75.019531 28.671875 C 76.824219 29.742188 80.097656 31.09375 82.441406 31.714844 C 83.160156 31.917969 84.945312 32.289062 86.382812 32.53125 C 89.917969 33.160156 91.507812 33.601562 93.097656 34.414062 C 93.738281 34.738281 93.804688 34.753906 95.472656 34.753906 L 97.191406 34.753906 L 97.191406 31.5 L 95.109375 31.5 C 89.554688 31.5 84.601562 30.765625 81.042969 29.40625 L 80.394531 29.164062 L 80.839844 28.289062 C 82.097656 25.789062 81.605469 23.640625 79.277344 21.382812 L 78.40625 20.539062 L 78.128906 20.875 C 77.613281 21.511719 76.929688 22.769531 76.644531 23.621094 C 76.308594 24.617188 76.257812 26.105469 76.53125 26.988281 L 76.703125 27.535156 L 76.164062 27.265625 C 75.078125 26.695312 71.460938 24.117188 71.460938 23.898438 C 71.460938 23.875 71.945312 23.359375 72.527344 22.757812 C 73.75 21.511719 74.519531 20.34375 74.964844 19.003906 C 75.25 18.179688 75.28125 17.921875 75.28125 16.617188 C 75.273438 15.398438 75.226562 15.007812 74.964844 14.121094 C 74.652344 13.078125 73.636719 10.820312 73.371094 10.601562 C 73.273438 10.503906 72.976562 10.648438 72.320312 11.101562 C 68.84375 13.460938 67.359375 16.527344 68.160156 19.691406 C 68.226562 19.933594 68.25 20.15625 68.226562 20.179688 C 68.136719 20.269531 66.914062 18.097656 66.488281 17.074219 C 66.261719 16.542969 65.972656 15.710938 65.847656 15.25 L 65.609375 14.402344 L 66.078125 13.679688 C 67.90625 10.820312 68.433594 7.996094 67.578125 5.664062 C 66.875 3.765625 64.992188 1.570312 62.863281 0.1875 L 62.558594 -0.0234375 Z M 62.019531 0.816406 " id="svg_1" fill="#ffffff" fill-opacity="1"/>
<path style="stroke: none; fill-rule: nonzero;" d="M 5.179688 36.609375 C 4.789062 36.742188 4.175781 37.078125 3.808594 37.355469 L 3.144531 37.867188 L 3.074219 36.726562 L 0 36.726562 L 0 54.511719 L 3.085938 54.511719 L 3.085938 51.839844 C 3.085938 50.359375 3.109375 49.164062 3.144531 49.164062 C 3.175781 49.164062 3.429688 49.339844 3.714844 49.558594 C 5.167969 50.6875 7.285156 50.847656 9.125 49.976562 C 10.53125 49.304688 11.8125 47.621094 12.304688 45.796875 C 12.578125 44.757812 12.578125 42.414062 12.304688 41.398438 C 11.683594 39.085938 10.347656 37.394531 8.597656 36.726562 C 7.636719 36.355469 6.105469 36.308594 5.179688 36.609375 Z M 7.523438 39.820312 C 8.21875 40.167969 8.621094 40.621094 9.023438 41.492188 C 9.285156 42.0625 9.320312 42.273438 9.308594 43.410156 C 9.296875 45.015625 9.03125 45.816406 8.246094 46.621094 C 7.730469 47.152344 6.882812 47.539062 6.234375 47.539062 C 5.535156 47.539062 4.734375 47.152344 4.160156 46.558594 C 3.347656 45.714844 3.144531 45.070312 3.144531 43.410156 C 3.144531 42.257812 3.175781 42.0625 3.464844 41.433594 C 4.082031 40.101562 4.894531 39.527344 6.1875 39.519531 C 6.757812 39.519531 7.066406 39.585938 7.523438 39.820312 Z M 7.523438 39.820312 " id="svg_2" fill="#ffffff" fill-opacity="1"/>
<path style="stroke: none; fill-rule: nonzero;" d="M 16.695312 36.554688 C 14.453125 37.066406 12.988281 38.578125 12.839844 40.507812 C 12.75 41.53125 13.035156 42.308594 13.742188 43.074219 C 14.59375 43.980469 15.4375 44.351562 17.769531 44.816406 C 20.007812 45.273438 20.273438 45.363281 20.582031 45.773438 C 21.050781 46.363281 20.753906 47.082031 19.859375 47.570312 C 19.449219 47.792969 19.210938 47.828125 18.179688 47.816406 C 16.71875 47.816406 15.964844 47.546875 15.09375 46.769531 L 14.519531 46.238281 L 13.4375 47.144531 C 12.828125 47.628906 12.3125 48.085938 12.28125 48.128906 C 12.191406 48.292969 13.414062 49.1875 14.347656 49.628906 C 15.585938 50.222656 16.511719 50.441406 18.007812 50.511719 C 20.15625 50.628906 21.871094 50.070312 23.042969 48.886719 C 23.953125 47.957031 24.183594 47.359375 24.183594 45.96875 C 24.183594 44.921875 24.148438 44.757812 23.875 44.269531 C 23.4375 43.515625 22.664062 42.839844 21.910156 42.550781 C 21.550781 42.421875 20.398438 42.144531 19.34375 41.949219 C 16.683594 41.449219 16.121094 41.167969 16.121094 40.332031 C 16.121094 39.496094 16.890625 39.003906 18.238281 39.003906 C 19.492188 38.996094 20.226562 39.261719 20.984375 40.027344 C 21.3125 40.355469 21.597656 40.691406 21.632812 40.785156 C 21.699219 41.039062 22.011719 40.808594 23.042969 39.75 L 23.953125 38.800781 L 23.339844 38.238281 C 22.652344 37.601562 21.519531 36.960938 20.582031 36.667969 C 19.6875 36.40625 17.628906 36.332031 16.695312 36.554688 Z M 16.695312 36.554688 " id="svg_3" fill="#ffffff" fill-opacity="1"/>
<path style="stroke: none; fill-rule: nonzero;" d="M 42 36.554688 C 41.199219 36.773438 40.171875 37.320312 39.699219 37.761719 C 39.492188 37.960938 39.300781 38.121094 39.261719 38.121094 C 39.242188 38.121094 39.21875 37.808594 39.21875 37.425781 L 39.21875 36.726562 L 36.128906 36.726562 L 36.128906 50.210938 L 39.21875 50.210938 L 39.21875 46.746094 C 39.21875 44.851562 39.277344 42.960938 39.34375 42.539062 C 39.632812 40.691406 40.589844 39.578125 42.007812 39.4375 C 42.820312 39.367188 43.519531 39.726562 43.90625 40.445312 L 44.191406 40.96875 L 44.226562 45.585938 L 44.265625 50.210938 L 47.335938 50.210938 L 47.335938 46.574219 C 47.335938 44.449219 47.398438 42.644531 47.464844 42.25 C 47.769531 40.515625 48.894531 39.398438 50.320312 39.398438 C 51.15625 39.398438 51.730469 39.785156 52.175781 40.621094 C 52.414062 41.074219 52.425781 41.238281 52.460938 45.65625 L 52.496094 50.222656 L 55.511719 50.152344 L 55.511719 44.980469 C 55.511719 39.167969 55.503906 39.054688 54.675781 37.949219 C 53.707031 36.660156 51.566406 36.054688 49.703125 36.554688 C 48.777344 36.796875 48.195312 37.125 47.507812 37.785156 L 46.925781 38.34375 L 46.445312 37.773438 C 45.734375 36.9375 44.765625 36.484375 43.542969 36.429688 C 42.921875 36.390625 42.386719 36.4375 42 36.554688 Z M 42 36.554688 " id="svg_4" fill="#ffffff" fill-opacity="1"/>
<path style="stroke: none; fill-rule: nonzero;" d="M 61.402344 36.5625 C 60.671875 36.765625 59.972656 37.15625 59.574219 37.601562 L 59.285156 37.910156 L 59.230469 37.34375 L 59.171875 36.789062 L 56.085938 36.789062 L 56.050781 45.65625 L 56.027344 54.511719 L 59.230469 54.511719 L 59.230469 49.175781 L 59.882812 49.640625 C 61.960938 51.117188 64.9375 50.757812 66.707031 48.816406 C 67.464844 47.980469 67.828125 47.351562 68.226562 46.191406 C 68.5 45.363281 68.539062 45.109375 68.539062 43.640625 C 68.546875 41.792969 68.351562 40.933594 67.597656 39.460938 C 66.375 37.101562 63.824219 35.90625 61.402344 36.5625 Z M 63.3125 39.691406 C 64.773438 40.320312 65.503906 41.773438 65.371094 43.820312 C 65.289062 44.945312 65.109375 45.585938 64.617188 46.296875 C 63.691406 47.667969 61.585938 47.882812 60.351562 46.746094 C 58.464844 45.015625 58.84375 40.820312 60.96875 39.773438 C 61.574219 39.472656 62.707031 39.4375 63.3125 39.691406 Z M 63.3125 39.691406 " id="svg_5" fill="#ffffff" fill-opacity="1"/>
<path style="stroke: none; fill-rule: nonzero;" d="M 73.898438 36.554688 C 70.207031 37.402344 68.070312 41.433594 69.121094 45.574219 C 69.554688 47.269531 70.820312 48.953125 72.253906 49.734375 C 74.207031 50.792969 76.917969 50.816406 78.816406 49.78125 C 80.179688 49.035156 81.484375 47.285156 81.9375 45.5625 C 82.214844 44.539062 82.214844 42.398438 81.9375 41.390625 C 81.34375 39.160156 79.84375 37.507812 77.753906 36.773438 C 76.6875 36.390625 74.988281 36.300781 73.898438 36.554688 Z M 76.628906 39.519531 C 77.398438 39.808594 78.097656 40.515625 78.515625 41.433594 C 78.816406 42.078125 78.835938 42.25 78.835938 43.527344 C 78.835938 44.785156 78.804688 44.980469 78.539062 45.5625 C 77.914062 46.933594 76.941406 47.597656 75.570312 47.585938 C 74.183594 47.5625 73.144531 46.84375 72.503906 45.445312 C 72.230469 44.863281 72.207031 44.679688 72.207031 43.351562 C 72.207031 41.703125 72.367188 41.195312 73.132812 40.332031 C 74.035156 39.316406 75.332031 39.019531 76.628906 39.519531 Z M 76.628906 39.519531 " id="svg_6" fill="#ffffff" fill-opacity="1"/>
<path style="stroke: none; fill-rule: nonzero;" d="M 86.007812 36.554688 C 84.398438 36.925781 83.082031 37.890625 82.476562 39.160156 C 82.199219 39.707031 82.15625 39.945312 82.167969 40.738281 C 82.167969 41.867188 82.441406 42.527344 83.183594 43.222656 C 84.101562 44.082031 84.875 44.390625 87.507812 44.921875 C 89.1875 45.257812 89.484375 45.355469 89.769531 45.632812 C 90.230469 46.074219 90.214844 46.582031 89.746094 47.128906 C 88.730469 48.304688 85.769531 48.085938 84.347656 46.703125 C 84.101562 46.457031 83.871094 46.257812 83.847656 46.257812 C 83.824219 46.257812 83.289062 46.6875 82.65625 47.210938 L 81.515625 48.167969 L 82.007812 48.59375 C 82.953125 49.445312 84.660156 50.1875 86.210938 50.441406 C 89.382812 50.945312 92.160156 49.851562 93.214844 47.6875 C 93.519531 47.046875 93.578125 46.804688 93.578125 46.035156 C 93.589844 45.257812 93.542969 45.050781 93.214844 44.375 C 92.535156 42.96875 91.820312 42.585938 88.648438 41.949219 C 87.425781 41.691406 86.273438 41.410156 86.101562 41.320312 C 84.921875 40.703125 85.347656 39.378906 86.832031 39.039062 C 87.367188 38.925781 87.65625 38.925781 88.308594 39.039062 C 89.300781 39.203125 89.910156 39.550781 90.605469 40.34375 L 91.132812 40.933594 L 92.214844 39.914062 L 93.304688 38.875 L 92.871094 38.433594 C 92.214844 37.753906 91.289062 37.183594 90.214844 36.808594 C 89.027344 36.390625 87.1875 36.273438 86.007812 36.554688 Z M 86.007812 36.554688 " id="svg_7" fill="#ffffff" fill-opacity="1"/>
<path style="stroke: none; fill-rule: nonzero;" d="M 102.050781 36.503906 C 99.84375 36.878906 98.359375 38.253906 98.140625 40.109375 L 98.070312 40.65625 L 98.746094 40.726562 C 99.121094 40.761719 99.835938 40.808594 100.335938 40.820312 L 101.25 40.851562 L 101.304688 40.445312 C 101.410156 39.839844 101.648438 39.542969 102.265625 39.226562 C 102.738281 38.980469 103.011719 38.9375 103.789062 38.9375 C 105.25 38.9375 105.890625 39.355469 106.054688 40.402344 L 106.132812 40.867188 L 105.285156 41.121094 C 104.832031 41.261719 103.683594 41.53125 102.75 41.726562 C 100.300781 42.25 99.34375 42.667969 98.53125 43.574219 C 97.832031 44.351562 97.613281 44.914062 97.554688 46.035156 C 97.457031 48.175781 98.449219 49.582031 100.542969 50.234375 C 102.097656 50.710938 104.175781 50.382812 105.546875 49.453125 L 105.972656 49.175781 L 106.054688 49.699219 L 106.121094 50.210938 L 107.949219 50.210938 C 108.96875 50.210938 109.769531 50.175781 109.746094 50.121094 C 109.230469 49.117188 109.253906 49.386719 109.195312 44.105469 C 109.140625 39.355469 109.128906 39.085938 108.898438 38.589844 C 108.441406 37.574219 107.277344 36.832031 105.675781 36.542969 C 104.714844 36.367188 102.945312 36.355469 102.050781 36.503906 Z M 106.109375 44.539062 C 106.109375 45.070312 106.054688 45.699219 105.996094 45.933594 C 105.835938 46.492188 105.011719 47.234375 104.257812 47.492188 C 103.558594 47.726562 102.4375 47.75 101.855469 47.546875 C 100.507812 47.097656 100.507812 45.25 101.855469 44.667969 C 102.0625 44.574219 102.804688 44.398438 103.480469 44.269531 C 104.167969 44.15625 104.980469 43.949219 105.273438 43.828125 C 106.132812 43.492188 106.109375 43.46875 106.109375 44.539062 Z M 106.109375 44.539062 " id="svg_8" fill="#ffffff" fill-opacity="1"/>
<path style="stroke: none; fill-rule: nonzero;" d="M 23.976562 36.808594 C 23.953125 36.871094 24.996094 39.960938 26.277344 43.691406 L 28.621094 50.488281 L 28.402344 50.898438 C 28.082031 51.5 27.375 51.839844 26.390625 51.839844 L 25.613281 51.839844 L 25.613281 53.171875 C 25.613281 54.347656 25.636719 54.535156 25.816406 54.601562 C 25.921875 54.648438 26.652344 54.683594 27.441406 54.683594 C 29.089844 54.683594 29.605469 54.519531 30.34375 53.742188 C 31.191406 52.859375 31.546875 51.828125 33.730469 44.144531 C 34.863281 40.132812 35.789062 36.820312 35.789062 36.789062 C 35.789062 36.75 35.078125 36.726562 34.199219 36.726562 L 32.609375 36.726562 L 31.445312 41.515625 C 30.792969 44.15625 30.230469 46.375 30.199219 46.457031 C 30.164062 46.527344 29.515625 44.492188 28.769531 41.921875 C 28.023438 39.355469 27.375 37.132812 27.316406 36.984375 C 27.226562 36.742188 27.179688 36.726562 25.625 36.726562 C 24.742188 36.726562 24 36.765625 23.976562 36.808594 Z M 23.976562 36.808594 " id="svg_9" fill="#ffffff" fill-opacity="1"/>
<path style="stroke: none; fill-rule: nonzero;" d="M 94.101562 43.46875 L 94.101562 50.210938 L 97.191406 50.210938 L 97.167969 43.492188 L 97.136719 36.789062 L 95.625 36.75 L 94.101562 36.714844 Z M 94.101562 43.46875 " id="svg_10" fill="#ffffff" fill-opacity="1"/>
</g></g></svg>